<?xml version="1.0" encoding="iso-8859-1"?>
<!-- Generator: Adobe Illustrator 19.0.0, SVG Export Plug-In . SVG Version: 6.00 Build 0)  -->
<svg version="1.1" id="Capa_1" xmlns="http://www.w3.org/2000/svg" xmlns:xlink="http://www.w3.org/1999/xlink" x="0px" y="0px"
	 viewBox="0 0 432.408 432.408" style="enable-background:new 0 0 432.408 432.408;" xml:space="preserve">
<g>
	<g>
		<polygon style="fill:#00EFD1;" points="357.985,154.988 411.275,236.49 324.548,236.49 356.94,155.51 		"/>
		<polygon style="fill:#00EFD1;" points="411.275,236.49 246.703,432.408 324.548,236.49 		"/>
	</g>
	<polygon style="fill:#00CEB4;" points="356.94,153.42 357.985,154.988 356.94,155.51 324.548,236.49 318.801,236.49 
		318.801,235.445 246.703,155.51 246.703,153.42 	"/>
	<g>
		<polygon style="fill:#00EFD1;" points="318.801,235.445 318.801,236.49 174.605,236.49 174.605,235.445 246.703,155.51 		"/>
		<polygon style="fill:#00EFD1;" points="169.381,236.49 246.703,432.408 82.132,236.49 		"/>
	</g>
	<g>
		
			<rect x="154.77" y="59.24" transform="matrix(-0.7071 0.7071 -0.7071 -0.7071 347.183 8.8923)" style="fill:#FEDB41;" width="33.959" height="34.221"/>
		<polygon style="fill:#FEDB41;" points="174.605,235.445 174.605,236.49 169.381,236.49 136.466,153.42 246.703,153.42 
			246.703,155.51 		"/>
	</g>
	<polygon style="fill:#00CEB4;" points="318.801,236.49 324.548,236.49 246.703,432.408 169.381,236.49 174.605,236.49 	"/>
	<polygon style="fill:#00EFD1;" points="136.466,153.42 169.381,236.49 82.132,236.49 	"/>
	<g>
		
			<rect x="102.827" y="6.995" transform="matrix(-0.7071 0.7071 -0.7071 -0.7071 221.5681 -43.5661)" style="fill:#FEDB41;" width="33.959" height="34.221"/>
		
			<rect x="34.495" y="65.895" transform="matrix(-0.7071 0.7071 -0.7071 -0.7071 183.6275 120.3555)" style="fill:#FEDB41;" width="64.784" height="64.627"/>
	</g>
</g>
<g>
</g>
<g>
</g>
<g>
</g>
<g>
</g>
<g>
</g>
<g>
</g>
<g>
</g>
<g>
</g>
<g>
</g>
<g>
</g>
<g>
</g>
<g>
</g>
<g>
</g>
<g>
</g>
<g>
</g>
</svg>
