<svg height="512" viewBox="0 0 64 64" width="512" xmlns="http://www.w3.org/2000/svg"><g id="shopping_&#xB7;_money_&#xB7;_payment_&#xB7;_business_&#xB7;_credit_card" data-name="shopping &#xB7; money &#xB7; payment &#xB7; business &#xB7; credit card"><path d="m55 15v34a6 6 0 0 1 -6 6h-28a6 6 0 0 1 -6-6v-34z" fill="#ffcd00"/><path d="m52 15v14a24 24 0 0 1 -24 24h-10a5.989 5.989 0 0 1 -1.671-.241 5.989 5.989 0 0 0 4.671 2.241h28a6 6 0 0 0 6-6v-34z" fill="#ebbf00"/><path d="m45 33h-36a2 2 0 0 0 -2 2v20a2.006 2.006 0 0 0 2 2h36a2.006 2.006 0 0 0 2-2v-20a2 2 0 0 0 -2-2z" fill="#ed1c24"/><path d="m45 33v20a2.006 2.006 0 0 1 -2 2h-36a2.006 2.006 0 0 0 2 2h36a2.006 2.006 0 0 0 2-2v-20a2 2 0 0 0 -2-2z" fill="#cf1820"/><path d="m55 49a6 6 0 0 1 -6 6h6a6 6 0 0 0 6-6v-34h-6z" fill="#a97c50"/><path d="m58 15v34a6 6 0 0 1 -6 6h3a6 6 0 0 0 6-6v-34z" fill="#8b5e3c"/><path d="m41 37h-36a2 2 0 0 0 -2 2v20a2.006 2.006 0 0 0 2 2h36a2.006 2.006 0 0 0 2-2v-20a2 2 0 0 0 -2-2z" fill="#006df0"/><path d="m41 37h-2v14a8.024 8.024 0 0 1 -8 8h-28a2.006 2.006 0 0 0 2 2h36a2.006 2.006 0 0 0 2-2v-20a2 2 0 0 0 -2-2z" fill="#005ece"/><path d="m3 41h40v4h-40z" fill="#58595b"/><path d="m39 41h4v4h-4z" fill="#414042"/><circle cx="36" cy="54" fill="#f15a29" r="3"/><circle cx="25" cy="22" fill="#ed1c24" r="3"/><circle cx="45" cy="22" fill="#ed1c24" r="3"/><path d="m22 53h-13a1 1 0 0 0 0 2h13a1 1 0 0 0 0-2z" fill="#f1f2f2"/><path d="m56 15h-2v-2a9 9 0 0 0 -18 0v2h-2v-2a11 11 0 0 1 22 0z" fill="#006df0"/><path d="m45 23a1 1 0 0 1 -1-1v-9a9 9 0 0 0 -18 0v9a1 1 0 0 1 -2 0v-9a11 11 0 0 1 22 0v9a1 1 0 0 1 -1 1z" fill="#005ece"/><circle cx="31" cy="54" fill="#f7941d" r="3"/></g></svg>